<svg width="16" height="16" viewBox="0 0 16 16" fill="none" xmlns="http://www.w3.org/2000/svg">
<path fill-rule="evenodd" clip-rule="evenodd" d="M7.2957 2.16663H8.70426C9.92943 2.16662 10.8999 2.16661 11.6593 2.26872C12.4409 2.3738 13.0736 2.59521 13.5725 3.09412C14.0714 3.59303 14.2928 4.22566 14.3979 5.00728C14.4988 5.75779 14.5 6.7143 14.5 7.91908C14.7293 8.10823 14.9113 8.35208 15.0271 8.63171C15.1073 8.8253 15.1384 9.02498 15.1528 9.23638C15.1667 9.43946 15.1667 9.68682 15.1666 9.98312V10.0168C15.1667 10.3131 15.1667 10.5605 15.1528 10.7635C15.1384 10.9749 15.1073 11.1746 15.0271 11.3682C14.841 11.8174 14.4841 12.1743 14.0349 12.3604C13.8413 12.4406 13.6416 12.4717 13.4302 12.4861C13.3495 12.4916 13.2617 12.4949 13.1666 12.4969V13.3333C13.1666 13.6094 12.9428 13.8333 12.6666 13.8333C12.3905 13.8333 12.1666 13.6094 12.1666 13.3333V12.5H3.83331V13.3333C3.83331 13.6094 3.60946 13.8333 3.33331 13.8333C3.05717 13.8333 2.83331 13.6094 2.83331 13.3333V12.4969C2.73826 12.4949 2.65049 12.4916 2.56974 12.4861C2.35834 12.4717 2.15865 12.4406 1.96506 12.3604C1.51584 12.1743 1.15894 11.8174 0.972868 11.3682C0.892679 11.1746 0.861584 10.9749 0.84716 10.7635C0.833304 10.5605 0.833308 10.3131 0.833313 10.0168V9.98313C0.833308 9.68682 0.833304 9.43946 0.84716 9.23638C0.861584 9.02498 0.892679 8.8253 0.972868 8.63171C1.08869 8.35208 1.27071 8.10823 1.49998 7.91908C1.49998 6.7143 1.50117 5.75779 1.60207 5.00728C1.70716 4.22566 1.92857 3.59303 2.42748 3.09412C2.92638 2.59521 3.55902 2.3738 4.34063 2.26872C5.10011 2.16661 6.07053 2.16662 7.2957 2.16663ZM2.50024 7.51923C2.52327 7.51719 2.54643 7.5154 2.56974 7.51381C2.73758 7.50235 2.93567 7.50037 3.16665 7.50003L3.16665 6.96529C3.16663 6.36631 3.16661 5.86683 3.21992 5.47031C3.27619 5.05178 3.39997 4.67391 3.70362 4.37026C4.00726 4.06662 4.38513 3.94284 4.80366 3.88657C5.20018 3.83326 5.69966 3.83327 6.29865 3.83329H9.70131C10.3003 3.83327 10.7998 3.83326 11.1963 3.88657C11.6148 3.94284 11.9927 4.06662 12.2963 4.37026C12.6 4.67391 12.7238 5.05178 12.78 5.47031C12.8334 5.86683 12.8333 6.36631 12.8333 6.9653V7.50003C13.0643 7.50037 13.2624 7.50235 13.4302 7.51381C13.4535 7.5154 13.4767 7.51719 13.4997 7.51923C13.4981 6.49599 13.4869 5.73593 13.4068 5.14053C13.3166 4.4698 13.1475 4.08337 12.8654 3.80123C12.5832 3.51909 12.1968 3.34998 11.5261 3.2598C10.841 3.16769 9.93786 3.16663 8.66665 3.16663H7.33331C6.0621 3.16663 5.15899 3.16769 4.47388 3.2598C3.80315 3.34998 3.41672 3.51909 3.13458 3.80123C2.85244 4.08337 2.68333 4.4698 2.59315 5.14053C2.5131 5.73593 2.50182 6.49599 2.50024 7.51923ZM11.8333 7.49996V6.99996C11.8333 6.35729 11.8323 5.92558 11.789 5.60355C11.7476 5.29591 11.6761 5.16425 11.5892 5.07737C11.5024 4.99049 11.3707 4.91901 11.0631 4.87765C10.741 4.83436 10.3093 4.83329 9.66665 4.83329H8.49998V7.49996H11.8333ZM7.49998 7.49996V4.83329H6.33331C5.69064 4.83329 5.25893 4.83436 4.93691 4.87765C4.62927 4.91901 4.4976 4.99049 4.41072 5.07737C4.32385 5.16425 4.25236 5.29591 4.211 5.60355C4.16771 5.92558 4.16665 6.35729 4.16665 6.99996V7.49996H7.49998ZM2.63781 8.51149C2.47732 8.52244 2.39918 8.54209 2.34774 8.56339C2.14355 8.64797 1.98133 8.8102 1.89675 9.01439C1.87544 9.06583 1.85579 9.14397 1.84484 9.30445C1.83358 9.46943 1.83331 9.68249 1.83331 9.99996C1.83331 10.3174 1.83358 10.5305 1.84484 10.6955C1.85579 10.856 1.87544 10.9341 1.89675 10.9855C1.98133 11.1897 2.14355 11.3519 2.34774 11.4365C2.39918 11.4578 2.47732 11.4775 2.63781 11.4884C2.80278 11.4997 3.01584 11.5 3.33331 11.5H12.6666C12.9841 11.5 13.1972 11.4997 13.3622 11.4884C13.5226 11.4775 13.6008 11.4578 13.6522 11.4365C13.8564 11.3519 14.0186 11.1897 14.1032 10.9855C14.1245 10.9341 14.1442 10.856 14.1551 10.6955C14.1664 10.5305 14.1666 10.3174 14.1666 9.99996C14.1666 9.68249 14.1664 9.46943 14.1551 9.30445C14.1442 9.14397 14.1245 9.06583 14.1032 9.01439C14.0186 8.8102 13.8564 8.64797 13.6522 8.56339C13.6008 8.54209 13.5226 8.52244 13.3622 8.51149C13.1972 8.50023 12.9841 8.49996 12.6666 8.49996H3.33331C3.01584 8.49996 2.80278 8.50023 2.63781 8.51149Z" fill="#444A50"/>
</svg>
