<svg width="16" height="16" viewBox="0 0 16 16" fill="none" xmlns="http://www.w3.org/2000/svg">
<path d="M11.8334 4.66671C11.8334 4.39057 11.6095 4.16671 11.3334 4.16671C11.0572 4.16671 10.8334 4.39057 10.8334 4.66671V6.00004C10.8334 6.27618 11.0572 6.50004 11.3334 6.50004C11.6095 6.50004 11.8334 6.27618 11.8334 6.00004V4.66671Z" fill="#444A50"/>
<path d="M11.8334 9.33337C11.8334 9.05723 11.6095 8.83337 11.3334 8.83337C11.0572 8.83337 10.8334 9.05723 10.8334 9.33337V10.6667C10.8334 10.9429 11.0572 11.1667 11.3334 11.1667C11.6095 11.1667 11.8334 10.9429 11.8334 10.6667V9.33337Z" fill="#444A50"/>
<path fill-rule="evenodd" clip-rule="evenodd" d="M8.03763 0.833374H7.96241C6.73724 0.833364 5.76681 0.833355 5.00734 0.935464C4.22572 1.04055 3.59309 1.26196 3.09418 1.76087C2.59527 2.25978 2.37386 2.89241 2.26878 3.67403C2.16667 4.4335 2.16668 5.40392 2.16669 6.62909V8.70432C2.16668 9.92949 2.16667 10.8999 2.26878 11.6594C2.37386 12.441 2.59527 13.0736 3.09418 13.5725C3.4002 13.8786 3.75653 14.0802 4.16669 14.2146V14.6667C4.16669 14.9429 4.39054 15.1667 4.66669 15.1667H5.33335C5.6095 15.1667 5.83335 14.9429 5.83335 14.6667V14.4695C6.43786 14.5001 7.14318 14.5 7.96238 14.5H8.03763C8.85684 14.5 9.56218 14.5001 10.1667 14.4695V14.6667C10.1667 14.9429 10.3905 15.1667 10.6667 15.1667H11.3334C11.6095 15.1667 11.8334 14.9429 11.8334 14.6667V14.2146C12.2435 14.0802 12.5998 13.8786 12.9059 13.5725C13.4048 13.0736 13.6262 12.441 13.7313 11.6594C13.8334 10.8999 13.8334 9.92951 13.8334 8.70435V6.6291C13.8334 5.40394 13.8334 4.4335 13.7313 3.67403C13.6262 2.89241 13.4048 2.25978 12.9059 1.76087C12.4069 1.26196 11.7743 1.04055 10.9927 0.935464C10.2332 0.833356 9.2628 0.833364 8.03763 0.833374ZM3.80129 2.46798C4.08343 2.18584 4.46986 2.01672 5.14059 1.92655C5.8257 1.83444 6.72881 1.83337 8.00002 1.83337C9.27123 1.83337 10.1743 1.83444 10.8595 1.92655C11.5302 2.01672 11.9166 2.18584 12.1988 2.46798C12.4809 2.75012 12.65 3.13655 12.7402 3.80727C12.8323 4.49238 12.8334 5.39549 12.8334 6.66671V7.16671H3.16669V6.66671C3.16669 5.39549 3.16775 4.49238 3.25986 3.80727C3.35004 3.13655 3.51915 2.75012 3.80129 2.46798ZM3.16669 8.16671H12.8334V8.66671C12.8334 9.93792 12.8323 10.841 12.7402 11.5261C12.65 12.1969 12.4809 12.5833 12.1988 12.8654C11.9166 13.1476 11.5302 13.3167 10.8595 13.4069C10.1743 13.499 9.27123 13.5 8.00002 13.5C6.72881 13.5 5.8257 13.499 5.14059 13.4069C4.46986 13.3167 4.08343 13.1476 3.80129 12.8654C3.51915 12.5833 3.35004 12.1969 3.25986 11.5261C3.16775 10.841 3.16669 9.93792 3.16669 8.66671V8.16671Z" fill="#444A50"/>
</svg>
