<svg width="196" height="40" viewBox="0 0 196 40" fill="none" xmlns="http://www.w3.org/2000/svg">
<g clip-path="url(#clip0_8996_4897)">
<path d="M23.0991 4.98726C24.0033 4.08307 24.0033 2.61707 23.0991 1.71288C22.1949 0.80868 20.7289 0.80868 19.8247 1.71288L10.5254 11.0122C9.62116 11.9164 9.62116 13.3824 10.5254 14.2866C11.4296 15.1908 12.8955 15.1908 13.7997 14.2866L23.0991 4.98726Z" fill="#3F83E7"/>
<path d="M40.8218 14.2862C40.6068 14.5013 40.3515 14.6719 40.0706 14.7883C39.7896 14.9047 39.4885 14.9646 39.1844 14.9646C38.8803 14.9646 38.5792 14.9047 38.2982 14.7883C38.0173 14.6719 37.762 14.5013 37.547 14.2862L30.3081 7.04728C30.186 6.92525 30.0205 6.8567 29.8479 6.8567C29.6753 6.8567 29.5097 6.92525 29.3877 7.04728L22.1487 14.2862C21.7128 14.7119 21.1266 14.9485 20.5174 14.9449C19.9081 14.9413 19.3248 14.6976 18.894 14.2668C18.4631 13.836 18.2195 13.2527 18.2159 12.6434C18.2122 12.0341 18.4489 11.448 18.8746 11.0121L28.1737 1.71295C28.6228 1.27866 29.2231 1.03589 29.8479 1.03589C30.4726 1.03589 31.0729 1.27866 31.522 1.71295L40.8218 11.0121C41.2559 11.4463 41.4998 12.0351 41.4998 12.6491C41.4998 13.2631 41.2559 13.852 40.8218 14.2862Z" fill="#304E6F"/>
<path d="M14.7517 4.98726C15.6559 4.08307 15.6559 2.61707 14.7517 1.71288C13.8475 0.80868 12.3815 0.80868 11.4773 1.71288L2.17794 11.0122C1.27374 11.9164 1.27375 13.3824 2.17794 14.2866C3.08214 15.1908 4.54813 15.1908 5.45233 14.2866L14.7517 4.98726Z" fill="#67A6EB"/>
<path d="M32.0938 12.0263L30.3084 10.2409C30.0542 9.98671 29.6421 9.98671 29.3879 10.2409L27.6025 12.0263C27.3483 12.2805 27.3483 12.6927 27.6025 12.9469L29.3879 14.7323C29.6421 14.9865 30.0542 14.9865 30.3084 14.7323L32.0938 12.9469C32.348 12.6927 32.348 12.2805 32.0938 12.0263Z" fill="#304E6F"/>
</g>
<path d="M9.296 22.6372V24.7012H3.52V27.3412H8.56V29.4052H3.52V31.9172H9.296V33.9652H1.2V22.6372H9.296ZM12.835 28.2692C12.835 28.7492 12.8937 29.2132 13.011 29.6612C13.139 30.1092 13.3257 30.5039 13.571 30.8452C13.827 31.1865 14.147 31.4639 14.531 31.6772C14.9257 31.8799 15.395 31.9812 15.939 31.9812C16.6217 31.9812 17.1817 31.8319 17.619 31.5332C18.067 31.2239 18.3443 30.7972 18.451 30.2532H20.691C20.6377 30.8825 20.4723 31.4372 20.195 31.9172C19.9177 32.3865 19.5603 32.7812 19.123 33.1012C18.6857 33.4212 18.1897 33.6612 17.635 33.8212C17.0803 33.9812 16.5043 34.0612 15.907 34.0612C15.0217 34.0612 14.2377 33.9172 13.555 33.6292C12.883 33.3412 12.3123 32.9412 11.843 32.4292C11.3843 31.9172 11.0377 31.3092 10.803 30.6052C10.5683 29.9012 10.451 29.1279 10.451 28.2852C10.451 27.4639 10.5683 26.7012 10.803 25.9972C11.0483 25.2825 11.4057 24.6692 11.875 24.1572C12.3443 23.6345 12.915 23.2292 13.587 22.9412C14.2697 22.6425 15.0537 22.4932 15.939 22.4932C16.5577 22.4932 17.139 22.5679 17.683 22.7172C18.227 22.8665 18.7123 23.0959 19.139 23.4052C19.5657 23.7145 19.9123 24.1145 20.179 24.6052C20.4563 25.0852 20.627 25.6612 20.691 26.3332H18.451C18.3337 25.7892 18.0563 25.3572 17.619 25.0372C17.1817 24.7172 16.6217 24.5572 15.939 24.5572C15.395 24.5572 14.9257 24.6585 14.531 24.8612C14.147 25.0532 13.827 25.3199 13.571 25.6612C13.3257 26.0025 13.139 26.4025 13.011 26.8612C12.8937 27.3092 12.835 27.7785 12.835 28.2692ZM26.8839 22.6372C27.1825 22.6372 27.4812 22.6479 27.7799 22.6692C28.0785 22.6799 28.3719 22.7172 28.6599 22.7812C28.9479 22.8452 29.2252 22.9412 29.4919 23.0692C29.7692 23.1865 30.0252 23.3519 30.2599 23.5652C30.6332 23.9065 30.8999 24.3172 31.0599 24.7972C31.2199 25.2665 31.2945 25.7465 31.2839 26.2372C31.2732 26.8985 31.1559 27.4585 30.9319 27.9172C30.7185 28.3759 30.4252 28.7652 30.0519 29.0852C29.7105 29.3625 29.3159 29.5599 28.8679 29.6772L31.3799 33.9652H28.7879L26.4999 29.9012H24.6919V33.9652H22.3719V22.6372H26.8839ZM26.8999 27.9492C27.1879 27.9492 27.4599 27.9225 27.7159 27.8692C27.9719 27.8159 28.1905 27.7305 28.3719 27.6132C28.5639 27.4852 28.7132 27.3199 28.8199 27.1172C28.9372 26.9039 29.0012 26.6372 29.0119 26.3172C29.0225 25.9759 28.9745 25.6985 28.8679 25.4852C28.7612 25.2719 28.6119 25.1065 28.4199 24.9892C28.2385 24.8719 28.0199 24.7972 27.7639 24.7652C27.5185 24.7225 27.2465 24.7012 26.9479 24.7012H24.6919V27.9492H26.8999ZM32.6713 24.7012V22.6372H41.5513V24.4612L35.4553 31.9172H41.4392V33.9652H32.5433V32.1252L38.6393 24.7012H32.6713Z" fill="#161C24"/>
<path d="M60.218 15V5.102H66.868V6.208H61.436V9.54H66.322V10.66H61.436V13.894H66.868V15H60.218ZM69.3229 9.246C69.3323 8.97533 69.3369 8.70467 69.3369 8.434C69.3369 8.16333 69.3369 7.89267 69.3369 7.622H74.5729V13.964H75.5389V17.268H74.3909V15H69.0009V17.268H67.8529V13.964C68.2263 13.964 68.5203 13.796 68.7349 13.46C68.8656 13.2733 68.9683 13.0073 69.0429 12.662C69.1176 12.3073 69.1736 11.934 69.2109 11.542C69.2576 11.1127 69.2856 10.688 69.2949 10.268C69.3136 9.83867 69.3229 9.498 69.3229 9.246ZM73.3829 8.672H70.4709C70.4616 9.064 70.4523 9.50267 70.4429 9.988C70.4336 10.4733 70.4149 10.926 70.3869 11.346C70.3776 11.5327 70.3636 11.738 70.3449 11.962C70.3263 12.1767 70.2936 12.4007 70.2469 12.634C70.2096 12.858 70.1489 13.0867 70.0649 13.32C69.9903 13.5533 69.8829 13.768 69.7429 13.964H73.3829V8.672ZM77.9438 15H76.7818V7.622H77.9718V13.278C78.0371 13.1473 78.1258 13.0073 78.2378 12.858C78.3498 12.6993 78.4384 12.578 78.5038 12.494L82.0738 7.622H83.2498V15H82.0598V9.344C81.9851 9.484 81.9011 9.61933 81.8078 9.75C81.7238 9.87133 81.6444 9.97867 81.5698 10.072L77.9438 15ZM85.1216 15V7.622H86.3116V10.856H90.0076V7.622H91.1976V15H90.0076V11.906H86.3116V15H85.1216ZM93.0786 7.622H94.2966V10.436H95.6266C96.0466 10.436 96.4293 10.4687 96.7746 10.534C97.1293 10.59 97.442 10.7113 97.7126 10.898C97.9646 11.0847 98.156 11.3227 98.2866 11.612C98.4266 11.892 98.4966 12.242 98.4966 12.662C98.478 13.082 98.3986 13.432 98.2586 13.712C98.128 13.9827 97.9553 14.2113 97.7406 14.398C97.4793 14.6127 97.162 14.7667 96.7886 14.86C96.4153 14.9533 96.0326 15 95.6406 15H93.0786V7.622ZM99.5186 15V7.622H100.709V15H99.5186ZM94.6886 13.964C95.0433 13.964 95.398 13.9593 95.7526 13.95C96.1166 13.9313 96.4293 13.8567 96.6906 13.726C96.868 13.6513 97.008 13.5253 97.1106 13.348C97.2226 13.1613 97.2833 12.9467 97.2926 12.704C97.2926 12.4147 97.232 12.186 97.1106 12.018C96.9986 11.85 96.8493 11.7287 96.6626 11.654C96.4853 11.57 96.2846 11.5187 96.0606 11.5C95.8366 11.4813 95.6173 11.472 95.4026 11.472H94.2966V13.964H94.6886ZM105.927 5.732C106.319 5.732 106.631 5.65733 106.865 5.508C107.107 5.35867 107.229 5.09733 107.229 4.724H108.321C108.302 5.396 108.078 5.886 107.649 6.194C107.229 6.502 106.65 6.656 105.913 6.656C105.175 6.656 104.597 6.502 104.177 6.194C103.766 5.886 103.551 5.396 103.533 4.724H104.625C104.634 5.09733 104.755 5.35867 104.989 5.508C105.222 5.65733 105.535 5.732 105.927 5.732ZM103.743 15H102.581V7.622H103.771V13.278C103.836 13.1473 103.925 13.0073 104.037 12.858C104.149 12.6993 104.237 12.578 104.303 12.494L107.873 7.622H109.049V15H107.859V9.344C107.784 9.484 107.7 9.61933 107.607 9.75C107.523 9.87133 107.443 9.97867 107.369 10.072L103.743 15ZM119.454 13.964V7.622H120.658V13.964H121.624V17.268H120.462V15H114.694V7.622H115.884V13.964H119.454ZM123.794 11.752C123.822 12.0787 123.887 12.382 123.99 12.662C124.102 12.9327 124.251 13.1707 124.438 13.376C124.624 13.5813 124.853 13.7447 125.124 13.866C125.404 13.978 125.726 14.034 126.09 14.034C126.267 14.034 126.449 14.02 126.636 13.992C126.832 13.9547 127.014 13.8987 127.182 13.824C127.35 13.74 127.499 13.6327 127.63 13.502C127.76 13.3713 127.858 13.2127 127.924 13.026H129.142C129.058 13.3807 128.913 13.6887 128.708 13.95C128.512 14.2113 128.274 14.426 127.994 14.594C127.723 14.762 127.42 14.888 127.084 14.972C126.748 15.0467 126.407 15.084 126.062 15.084C125.474 15.084 124.96 14.9907 124.522 14.804C124.092 14.6173 123.733 14.3607 123.444 14.034C123.154 13.698 122.94 13.3013 122.8 12.844C122.66 12.3773 122.59 11.8687 122.59 11.318C122.59 10.7673 122.664 10.2633 122.814 9.806C122.972 9.33933 123.196 8.938 123.486 8.602C123.775 8.266 124.13 8.00467 124.55 7.818C124.97 7.63133 125.469 7.538 126.048 7.538C126.636 7.538 127.144 7.65467 127.574 7.888C128.003 8.12133 128.348 8.42933 128.61 8.812C128.871 9.18533 129.053 9.59133 129.156 10.03C129.268 10.4687 129.314 10.8747 129.296 11.248C129.296 11.332 129.291 11.416 129.282 11.5C129.282 11.584 129.277 11.668 129.268 11.752H123.794ZM128.092 10.716C128.073 10.0907 127.877 9.582 127.504 9.19C127.13 8.798 126.631 8.602 126.006 8.602C125.66 8.602 125.357 8.658 125.096 8.77C124.834 8.882 124.615 9.036 124.438 9.232C124.26 9.428 124.12 9.65667 124.018 9.918C123.915 10.17 123.85 10.436 123.822 10.716H128.092ZM130.895 15V7.622H132.085V10.856H135.781V7.622H136.971V15H135.781V11.906H132.085V15H130.895ZM144.298 7.622V8.672H141.764V15H140.574V8.672H138.04V7.622H144.298ZM146.55 17.66H145.36V7.622H146.494L146.55 8.756C146.802 8.35467 147.143 8.056 147.572 7.86C148.011 7.65467 148.482 7.54733 148.986 7.538C149.555 7.538 150.036 7.636 150.428 7.832C150.829 8.01867 151.161 8.28467 151.422 8.63C151.693 8.966 151.893 9.36733 152.024 9.834C152.155 10.2913 152.22 10.786 152.22 11.318C152.22 11.8593 152.155 12.3587 152.024 12.816C151.893 13.2733 151.693 13.67 151.422 14.006C151.151 14.342 150.811 14.608 150.4 14.804C149.989 14.9907 149.499 15.084 148.93 15.084C148.37 15.084 147.894 14.9953 147.502 14.818C147.11 14.6407 146.793 14.4073 146.55 14.118V17.66ZM148.832 14.034C149.233 14.034 149.569 13.964 149.84 13.824C150.12 13.6747 150.344 13.4787 150.512 13.236C150.689 12.984 150.815 12.6947 150.89 12.368C150.974 12.0413 151.021 11.6913 151.03 11.318C151.03 10.9447 150.988 10.5947 150.904 10.268C150.829 9.932 150.703 9.64267 150.526 9.4C150.349 9.15733 150.115 8.966 149.826 8.826C149.546 8.67667 149.205 8.602 148.804 8.602C148.328 8.602 147.917 8.73267 147.572 8.994C147.227 9.246 146.965 9.568 146.788 9.96C146.685 10.1747 146.615 10.3987 146.578 10.632C146.541 10.856 146.522 11.0893 146.522 11.332C146.522 11.612 146.541 11.8733 146.578 12.116C146.615 12.3493 146.685 12.5733 146.788 12.788C146.965 13.1427 147.222 13.4413 147.558 13.684C147.903 13.9173 148.328 14.034 148.832 14.034ZM61.128 37.66H59.938V27.622H61.072L61.128 28.756C61.38 28.3547 61.7207 28.056 62.15 27.86C62.5887 27.6547 63.06 27.5473 63.564 27.538C64.1333 27.538 64.614 27.636 65.006 27.832C65.4073 28.0187 65.7387 28.2847 66 28.63C66.2707 28.966 66.4713 29.3673 66.602 29.834C66.7327 30.2913 66.798 30.786 66.798 31.318C66.798 31.8593 66.7327 32.3587 66.602 32.816C66.4713 33.2733 66.2707 33.67 66 34.006C65.7293 34.342 65.3887 34.608 64.978 34.804C64.5673 34.9907 64.0773 35.084 63.508 35.084C62.948 35.084 62.472 34.9953 62.08 34.818C61.688 34.6407 61.3707 34.4073 61.128 34.118V37.66ZM63.41 34.034C63.8113 34.034 64.1473 33.964 64.418 33.824C64.698 33.6747 64.922 33.4787 65.09 33.236C65.2673 32.984 65.3933 32.6947 65.468 32.368C65.552 32.0413 65.5987 31.6913 65.608 31.318C65.608 30.9447 65.566 30.5947 65.482 30.268C65.4073 29.932 65.2813 29.6427 65.104 29.4C64.9267 29.1573 64.6933 28.966 64.404 28.826C64.124 28.6767 63.7833 28.602 63.382 28.602C62.906 28.602 62.4953 28.7327 62.15 28.994C61.8047 29.246 61.5433 29.568 61.366 29.96C61.2633 30.1747 61.1933 30.3987 61.156 30.632C61.1187 30.856 61.1 31.0893 61.1 31.332C61.1 31.612 61.1187 31.8733 61.156 32.116C61.1933 32.3493 61.2633 32.5733 61.366 32.788C61.5433 33.1427 61.8 33.4413 62.136 33.684C62.4813 33.9173 62.906 34.034 63.41 34.034ZM69.2565 31.752C69.2845 32.0787 69.3499 32.382 69.4525 32.662C69.5645 32.9327 69.7139 33.1707 69.9005 33.376C70.0872 33.5813 70.3159 33.7447 70.5865 33.866C70.8665 33.978 71.1885 34.034 71.5525 34.034C71.7299 34.034 71.9119 34.02 72.0985 33.992C72.2945 33.9547 72.4765 33.8987 72.6445 33.824C72.8125 33.74 72.9619 33.6327 73.0925 33.502C73.2232 33.3713 73.3212 33.2127 73.3865 33.026H74.6045C74.5205 33.3807 74.3759 33.6887 74.1705 33.95C73.9745 34.2113 73.7365 34.426 73.4565 34.594C73.1859 34.762 72.8825 34.888 72.5465 34.972C72.2105 35.0467 71.8699 35.084 71.5245 35.084C70.9365 35.084 70.4232 34.9907 69.9845 34.804C69.5552 34.6173 69.1959 34.3607 68.9065 34.034C68.6172 33.698 68.4025 33.3013 68.2625 32.844C68.1225 32.3773 68.0525 31.8687 68.0525 31.318C68.0525 30.7673 68.1272 30.2633 68.2765 29.806C68.4352 29.3393 68.6592 28.938 68.9485 28.602C69.2379 28.266 69.5925 28.0047 70.0125 27.818C70.4325 27.6313 70.9319 27.538 71.5105 27.538C72.0985 27.538 72.6072 27.6547 73.0365 27.888C73.4659 28.1213 73.8112 28.4293 74.0725 28.812C74.3339 29.1853 74.5159 29.5913 74.6185 30.03C74.7305 30.4687 74.7772 30.8747 74.7585 31.248C74.7585 31.332 74.7539 31.416 74.7445 31.5C74.7445 31.584 74.7399 31.668 74.7305 31.752H69.2565ZM73.5545 30.716C73.5359 30.0907 73.3399 29.582 72.9665 29.19C72.5932 28.798 72.0939 28.602 71.4685 28.602C71.1232 28.602 70.8199 28.658 70.5585 28.77C70.2972 28.882 70.0779 29.036 69.9005 29.232C69.7232 29.428 69.5832 29.6567 69.4805 29.918C69.3779 30.17 69.3125 30.436 69.2845 30.716H73.5545ZM81.2159 34.062C81.0573 34.2767 80.8753 34.4493 80.6699 34.58C80.4646 34.7107 80.2499 34.8133 80.0259 34.888C79.8113 34.9627 79.5919 35.014 79.3679 35.042C79.1533 35.07 78.9386 35.084 78.7239 35.084C78.3786 35.084 78.0519 35.042 77.7439 34.958C77.4359 34.874 77.1559 34.7387 76.9039 34.552C76.6613 34.3653 76.4653 34.132 76.3159 33.852C76.1759 33.572 76.1059 33.2547 76.1059 32.9C76.1059 32.48 76.1806 32.13 76.3299 31.85C76.4886 31.5607 76.6986 31.3273 76.9599 31.15C77.2213 30.9727 77.5199 30.8513 77.8559 30.786C78.2013 30.7113 78.5653 30.674 78.9479 30.674H81.1179C81.1179 30.0487 80.9826 29.554 80.7119 29.19C80.4413 28.8167 79.9839 28.6207 79.3399 28.602C78.9479 28.602 78.6026 28.6673 78.3039 28.798C78.0053 28.9287 77.7999 29.1433 77.6879 29.442H76.4139C76.4793 29.106 76.6099 28.8213 76.8059 28.588C77.0019 28.3453 77.2353 28.1493 77.5059 28C77.7766 27.8413 78.0706 27.7247 78.3879 27.65C78.7053 27.5753 79.0226 27.538 79.3399 27.538C79.8906 27.538 80.3526 27.6313 80.7259 27.818C81.1086 27.9953 81.4166 28.2333 81.6499 28.532C81.8833 28.8213 82.0466 29.176 82.1399 29.596C82.2333 30.016 82.2799 30.4873 82.2799 31.01V35H81.2859L81.2159 34.062ZM79.8159 31.668C79.5919 31.668 79.3306 31.6727 79.0319 31.682C78.7426 31.682 78.4626 31.71 78.1919 31.766C77.9213 31.822 77.7019 31.9387 77.5339 32.116C77.3753 32.2933 77.2959 32.5267 77.2959 32.816C77.2959 33.0307 77.3379 33.2127 77.4219 33.362C77.5059 33.5113 77.6179 33.6373 77.7579 33.74C77.9073 33.8427 78.0753 33.9173 78.2619 33.964C78.4486 34.0107 78.6399 34.034 78.8359 34.034C79.5359 34.034 80.0866 33.866 80.4879 33.53C80.8986 33.1847 81.1086 32.6853 81.1179 32.032V31.668H79.8159ZM84.8095 31.542C84.8562 30.87 84.8889 30.2167 84.9075 29.582C84.9355 28.9473 84.9542 28.294 84.9635 27.622H90.0875V35H88.8975V28.672H86.1255L85.9995 31.57C85.9809 31.9433 85.9389 32.3633 85.8735 32.83C85.8082 33.2967 85.6729 33.7213 85.4675 34.104C85.3089 34.3747 85.0942 34.594 84.8235 34.762C84.5529 34.93 84.2402 35.014 83.8855 35.014H83.4515V33.964C83.8249 33.964 84.1235 33.8053 84.3475 33.488C84.4782 33.3013 84.5809 33.0307 84.6555 32.676C84.7302 32.3213 84.7815 31.9433 84.8095 31.542ZM93.1195 35H91.9575V27.622H93.1475V33.278C93.2129 33.1473 93.3015 33.0073 93.4135 32.858C93.5255 32.6993 93.6142 32.578 93.6795 32.494L97.2495 27.622H98.4255V35H97.2355V29.344C97.1609 29.484 97.0769 29.6193 96.9835 29.75C96.8995 29.8713 96.8202 29.9787 96.7455 30.072L93.1195 35ZM104.679 31.038C105.155 31.1873 105.487 31.4207 105.673 31.738C105.86 32.0553 105.953 32.4333 105.953 32.872C105.944 33.264 105.851 33.6 105.673 33.88C105.505 34.16 105.281 34.3887 105.001 34.566C104.721 34.7433 104.404 34.874 104.049 34.958C103.695 35.042 103.331 35.084 102.957 35.084C102.603 35.084 102.243 35.0513 101.879 34.986C101.525 34.9207 101.203 34.8087 100.913 34.65C100.624 34.4913 100.381 34.2813 100.185 34.02C99.9987 33.7587 99.896 33.4273 99.8774 33.026H101.039C101.077 33.222 101.165 33.3853 101.305 33.516C101.445 33.6373 101.609 33.74 101.795 33.824C101.991 33.8987 102.192 33.9547 102.397 33.992C102.612 34.02 102.803 34.034 102.971 34.034C103.167 34.034 103.368 34.02 103.573 33.992C103.788 33.964 103.984 33.908 104.161 33.824C104.339 33.74 104.483 33.6233 104.595 33.474C104.707 33.3153 104.763 33.1147 104.763 32.872C104.763 32.676 104.721 32.4987 104.637 32.34C104.553 32.172 104.423 32.046 104.245 31.962C104.087 31.8873 103.905 31.8453 103.699 31.836C103.494 31.8173 103.303 31.808 103.125 31.808H101.809V30.758H102.887C103.065 30.758 103.247 30.744 103.433 30.716C103.62 30.6787 103.788 30.618 103.937 30.534C104.096 30.45 104.222 30.3427 104.315 30.212C104.418 30.072 104.474 29.876 104.483 29.624C104.483 29.428 104.437 29.2647 104.343 29.134C104.259 29.0033 104.143 28.9007 103.993 28.826C103.853 28.742 103.69 28.686 103.503 28.658C103.326 28.6207 103.149 28.602 102.971 28.602C102.803 28.602 102.626 28.616 102.439 28.644C102.253 28.6627 102.08 28.7093 101.921 28.784C101.763 28.8493 101.627 28.9427 101.515 29.064C101.403 29.1853 101.333 29.344 101.305 29.54H100.129C100.139 29.1667 100.227 28.854 100.395 28.602C100.573 28.3407 100.797 28.1353 101.067 27.986C101.338 27.8273 101.637 27.7153 101.963 27.65C102.299 27.5753 102.631 27.538 102.957 27.538C103.284 27.538 103.606 27.5707 103.923 27.636C104.25 27.7013 104.539 27.8133 104.791 27.972C105.043 28.1213 105.249 28.322 105.407 28.574C105.566 28.826 105.645 29.1387 105.645 29.512C105.645 29.848 105.566 30.1467 105.407 30.408C105.249 30.6693 105.006 30.8793 104.679 31.038ZM112.347 34.062C112.188 34.2767 112.006 34.4493 111.801 34.58C111.595 34.7107 111.381 34.8133 111.157 34.888C110.942 34.9627 110.723 35.014 110.499 35.042C110.284 35.07 110.069 35.084 109.855 35.084C109.509 35.084 109.183 35.042 108.875 34.958C108.567 34.874 108.287 34.7387 108.035 34.552C107.792 34.3653 107.596 34.132 107.447 33.852C107.307 33.572 107.237 33.2547 107.237 32.9C107.237 32.48 107.311 32.13 107.461 31.85C107.619 31.5607 107.829 31.3273 108.091 31.15C108.352 30.9727 108.651 30.8513 108.987 30.786C109.332 30.7113 109.696 30.674 110.079 30.674H112.249C112.249 30.0487 112.113 29.554 111.843 29.19C111.572 28.8167 111.115 28.6207 110.471 28.602C110.079 28.602 109.733 28.6673 109.435 28.798C109.136 28.9287 108.931 29.1433 108.819 29.442H107.545C107.61 29.106 107.741 28.8213 107.937 28.588C108.133 28.3453 108.366 28.1493 108.637 28C108.907 27.8413 109.201 27.7247 109.519 27.65C109.836 27.5753 110.153 27.538 110.471 27.538C111.021 27.538 111.483 27.6313 111.857 27.818C112.239 27.9953 112.547 28.2333 112.781 28.532C113.014 28.8213 113.177 29.176 113.271 29.596C113.364 30.016 113.411 30.4873 113.411 31.01V35H112.417L112.347 34.062ZM110.947 31.668C110.723 31.668 110.461 31.6727 110.163 31.682C109.873 31.682 109.593 31.71 109.323 31.766C109.052 31.822 108.833 31.9387 108.665 32.116C108.506 32.2933 108.427 32.5267 108.427 32.816C108.427 33.0307 108.469 33.2127 108.553 33.362C108.637 33.5113 108.749 33.6373 108.889 33.74C109.038 33.8427 109.206 33.9173 109.393 33.964C109.579 34.0107 109.771 34.034 109.967 34.034C110.667 34.034 111.217 33.866 111.619 33.53C112.029 33.1847 112.239 32.6853 112.249 32.032V31.668H110.947ZM120.014 33.964V27.622H121.218V33.964H122.184V37.268H121.022V35H115.254V27.622H116.444V33.964H120.014ZM124.592 35H123.43V27.622H124.62V33.278C124.686 33.1473 124.774 33.0073 124.886 32.858C124.998 32.6993 125.087 32.578 125.152 32.494L128.722 27.622H129.898V35H128.708V29.344C128.634 29.484 128.55 29.6193 128.456 29.75C128.372 29.8713 128.293 29.9787 128.218 30.072L124.592 35ZM132.932 35H131.77V27.622H132.96V33.278C133.025 33.1473 133.114 33.0073 133.226 32.858C133.338 32.6993 133.427 32.578 133.492 32.494L137.062 27.622H138.238V35H137.048V29.344C136.973 29.484 136.889 29.6193 136.796 29.75C136.712 29.8713 136.633 29.9787 136.558 30.072L132.932 35ZM147.677 35V31.822H146.445L144.527 35H143.141L145.535 31.136L143.351 27.622H144.625L146.571 30.814H147.677V27.622H148.867V30.814H149.973L151.919 27.622H153.193L151.009 31.136L153.403 35H152.017L150.099 31.822H148.867V35H147.677ZM155.696 35H154.534V27.622H155.724V33.278C155.789 33.1473 155.878 33.0073 155.99 32.858C156.102 32.6993 156.19 32.578 156.256 32.494L159.826 27.622H161.002V35H159.812V29.344C159.737 29.484 159.653 29.6193 159.56 29.75C159.476 29.8713 159.396 29.9787 159.322 30.072L155.696 35ZM163.56 31.542C163.606 30.87 163.639 30.2167 163.658 29.582C163.686 28.9473 163.704 28.294 163.714 27.622H168.838V35H167.648V28.672H164.876L164.75 31.57C164.731 31.9433 164.689 32.3633 164.624 32.83C164.558 33.2967 164.423 33.7213 164.218 34.104C164.059 34.3747 163.844 34.594 163.574 34.762C163.303 34.93 162.99 35.014 162.636 35.014H162.202V33.964C162.575 33.964 162.874 33.8053 163.098 33.488C163.228 33.3013 163.331 33.0307 163.406 32.676C163.48 32.3213 163.532 31.9433 163.56 31.542ZM170.708 27.622H171.926V30.436H173.55C173.97 30.436 174.357 30.4687 174.712 30.534C175.066 30.59 175.374 30.7113 175.636 30.898C175.888 31.0847 176.079 31.3227 176.21 31.612C176.35 31.892 176.42 32.242 176.42 32.662C176.41 33.082 176.336 33.432 176.196 33.712C176.056 33.9827 175.878 34.2113 175.664 34.398C175.412 34.6127 175.094 34.7667 174.712 34.86C174.338 34.9533 173.956 35 173.564 35H170.708V27.622ZM172.626 33.964C172.98 33.964 173.335 33.9593 173.69 33.95C174.044 33.9313 174.352 33.8567 174.614 33.726C174.791 33.6513 174.931 33.5253 175.034 33.348C175.146 33.1613 175.206 32.9467 175.216 32.704C175.216 32.4147 175.155 32.186 175.034 32.018C174.922 31.85 174.772 31.7287 174.586 31.654C174.408 31.57 174.208 31.5187 173.984 31.5C173.76 31.4813 173.54 31.472 173.326 31.472H171.926V33.964H172.626ZM183.431 35H182.241V32.27H180.547L178.755 35H177.369L179.287 32.088C178.755 31.9387 178.339 31.696 178.041 31.36C177.742 31.0147 177.583 30.5573 177.565 29.988C177.555 29.4933 177.63 29.0967 177.789 28.798C177.957 28.49 178.176 28.2427 178.447 28.056C178.708 27.8693 179.011 27.7527 179.357 27.706C179.702 27.65 180.071 27.622 180.463 27.622H183.431V35ZM182.241 28.672L180.659 28.658C180.425 28.658 180.187 28.6673 179.945 28.686C179.711 28.7047 179.501 28.7653 179.315 28.868C179.156 28.9613 179.025 29.0967 178.923 29.274C178.829 29.442 178.778 29.6613 178.769 29.932C178.778 30.184 178.839 30.3987 178.951 30.576C179.063 30.744 179.221 30.8793 179.427 30.982C179.697 31.1127 179.996 31.1873 180.323 31.206C180.659 31.2247 181.004 31.234 181.359 31.234H182.241V28.672Z" fill="#73777C"/>
<defs>
<clipPath id="clip0_8996_4897">
<rect width="40" height="13.9304" fill="white" transform="translate(1.5 1.03479)"/>
</clipPath>
</defs>
</svg>
