<svg width="16" height="16" viewBox="0 0 16 16" fill="none" xmlns="http://www.w3.org/2000/svg">
<g clip-path="url(#clip0_9025_4910)">
<path fill-rule="evenodd" clip-rule="evenodd" d="M2.16675 6.76224C2.16675 3.49622 4.77009 0.833374 8.00008 0.833374C11.2301 0.833374 13.8334 3.49622 13.8334 6.76224C13.8334 8.33897 13.3841 10.032 12.5897 11.4946C11.7963 12.9555 10.6372 14.2249 9.18709 14.9026C8.43379 15.2547 7.56637 15.2547 6.81307 14.9026C5.363 14.2249 4.20383 12.9555 3.41045 11.4946C2.6161 10.032 2.16675 8.33897 2.16675 6.76224ZM8.00008 1.83337C5.33904 1.83337 3.16675 4.0317 3.16675 6.76224C3.16675 8.16028 3.5685 9.69031 4.28922 11.0174C5.01091 12.3462 6.03076 13.4331 7.23651 13.9967C7.72145 14.2234 8.27871 14.2234 8.76365 13.9967C9.9694 13.4331 10.9893 12.3462 11.7109 11.0174C12.4317 9.69031 12.8334 8.16028 12.8334 6.76224C12.8334 4.0317 10.6611 1.83337 8.00008 1.83337ZM8.00008 5.16671C7.17165 5.16671 6.50008 5.83828 6.50008 6.66671C6.50008 7.49513 7.17165 8.16671 8.00008 8.16671C8.82851 8.16671 9.50008 7.49513 9.50008 6.66671C9.50008 5.83828 8.82851 5.16671 8.00008 5.16671ZM5.50008 6.66671C5.50008 5.286 6.61937 4.16671 8.00008 4.16671C9.38079 4.16671 10.5001 5.286 10.5001 6.66671C10.5001 8.04742 9.38079 9.16671 8.00008 9.16671C6.61937 9.16671 5.50008 8.04742 5.50008 6.66671Z" fill="#B9BBBD"/>
</g>
<defs>
<clipPath id="clip0_9025_4910">
<rect width="16" height="16" fill="white"/>
</clipPath>
</defs>
</svg>
