<svg width="12" height="13" viewBox="0 0 12 13" fill="none" xmlns="http://www.w3.org/2000/svg">
<path fill-rule="evenodd" clip-rule="evenodd" d="M1.42163 1.27124C2.54168 0.151194 4.43178 0.236339 5.21165 1.63375L5.64433 2.40904C6.15361 3.32159 5.93658 4.47297 5.19105 5.22762C5.18112 5.24122 5.12849 5.31785 5.12194 5.45172C5.11357 5.6226 5.17426 6.01779 5.78655 6.63007C6.39863 7.24216 6.79377 7.303 6.96472 7.29468C7.0987 7.28817 7.17538 7.23551 7.18901 7.22557C7.94366 6.48004 9.09504 6.26302 10.0076 6.77229L10.7829 7.20497C12.1803 7.98485 12.2654 9.87494 11.1454 10.995C10.5463 11.5941 9.74967 12.1264 8.81353 12.1619C7.42625 12.2145 5.12275 11.8562 2.84157 9.57506C0.560376 7.29387 0.202118 4.99038 0.25471 3.60309C0.290198 2.66696 0.822527 1.87035 1.42163 1.27124ZM4.33843 2.12108C3.93909 1.40552 2.86596 1.24113 2.12874 1.97835C1.61184 2.49524 1.2758 3.06579 1.25399 3.64097C1.21013 4.79787 1.49576 6.81504 3.54867 8.86795C5.60158 10.9209 7.61875 11.2065 8.77565 11.1626C9.35083 11.1408 9.92138 10.8048 10.4383 10.2879C11.1755 9.55066 11.0111 8.47753 10.2955 8.07819L9.52025 7.64551C9.03798 7.37636 8.36057 7.46817 7.88502 7.9437L7.88487 7.94385C7.83816 7.99053 7.54095 8.26784 7.0133 8.2935C6.47316 8.31978 5.81933 8.07708 5.07944 7.33718C4.3393 6.59704 4.09668 5.94304 4.12313 5.40282C4.14897 4.87514 4.42645 4.57807 4.47288 4.53164L4.4729 4.53162C4.94845 4.05607 5.04026 3.37865 4.77111 2.89637L4.33843 2.12108Z" fill="#B9BBBD"/>
</svg>
