<svg width="16" height="16" viewBox="0 0 16 16" fill="none" xmlns="http://www.w3.org/2000/svg">
<g clip-path="url(#clip0_9239_6747)">
<path d="M8.33337 4.66671C8.33337 4.39056 8.55723 4.16671 8.83337 4.16671H11.3334C11.6095 4.16671 11.8334 4.39056 11.8334 4.66671V7.16671C11.8334 7.44285 11.6095 7.66671 11.3334 7.66671C11.0572 7.66671 10.8334 7.44285 10.8334 7.16671V5.87381L5.87381 10.8334H7.16671C7.44285 10.8334 7.66671 11.0572 7.66671 11.3334C7.66671 11.6095 7.44285 11.8334 7.16671 11.8334H4.66671C4.39056 11.8334 4.16671 11.6095 4.16671 11.3334V8.83337C4.16671 8.55723 4.39056 8.33337 4.66671 8.33337C4.94285 8.33337 5.16671 8.55723 5.16671 8.83337V10.1263L10.1263 5.16671H8.83337C8.55723 5.16671 8.33337 4.94285 8.33337 4.66671Z" fill="#444A50"/>
<path fill-rule="evenodd" clip-rule="evenodd" d="M7.96179 0.833374C6.42286 0.833366 5.21684 0.833359 4.27584 0.959872C3.31269 1.08936 2.55267 1.35959 1.95613 1.95613C1.35959 2.55267 1.08936 3.31269 0.959872 4.27584C0.833359 5.21684 0.833366 6.42286 0.833374 7.96179V8.03829C0.833366 9.57722 0.833359 10.7832 0.959872 11.7242C1.08936 12.6874 1.35959 13.4474 1.95613 14.044C2.55267 14.6405 3.31269 14.9107 4.27584 15.0402C5.21684 15.1667 6.42286 15.1667 7.96179 15.1667H8.03829C9.57722 15.1667 10.7832 15.1667 11.7242 15.0402C12.6874 14.9107 13.4474 14.6405 14.044 14.044C14.6405 13.4474 14.9107 12.6874 15.0402 11.7242C15.1667 10.7832 15.1667 9.57722 15.1667 8.03829V7.96179C15.1667 6.42286 15.1667 5.21684 15.0402 4.27584C14.9107 3.31269 14.6405 2.55267 14.044 1.95613C13.4474 1.35959 12.6874 1.08936 11.7242 0.959872C10.7832 0.833359 9.57722 0.833366 8.03829 0.833374H7.96179ZM2.66324 2.66324C3.04301 2.28347 3.55682 2.06554 4.40909 1.95095C5.27574 1.83444 6.41456 1.83337 8.00004 1.83337C9.58552 1.83337 10.7243 1.83444 11.591 1.95095C12.4433 2.06554 12.9571 2.28347 13.3368 2.66324C13.7166 3.04301 13.9345 3.55682 14.0491 4.40909C14.1656 5.27574 14.1667 6.41456 14.1667 8.00004C14.1667 9.58552 14.1656 10.7243 14.0491 11.591C13.9345 12.4433 13.7166 12.9571 13.3368 13.3368C12.9571 13.7166 12.4433 13.9345 11.591 14.0491C10.7243 14.1656 9.58552 14.1667 8.00004 14.1667C6.41456 14.1667 5.27574 14.1656 4.40909 14.0491C3.55682 13.9345 3.04301 13.7166 2.66324 13.3368C2.28347 12.9571 2.06554 12.4433 1.95095 11.591C1.83444 10.7243 1.83337 9.58552 1.83337 8.00004C1.83337 6.41456 1.83444 5.27574 1.95095 4.40909C2.06554 3.55682 2.28347 3.04301 2.66324 2.66324Z" fill="#444A50"/>
</g>
<defs>
<clipPath id="clip0_9239_6747">
<rect width="16" height="16" rx="3.33333" fill="white"/>
</clipPath>
</defs>
</svg>
