<svg width="37" height="36" viewBox="0 0 37 36" fill="none" xmlns="http://www.w3.org/2000/svg">
<g filter="url(#filter0_b_9005_4917)">
<rect x="0.833252" width="36" height="36" rx="4" fill="#8F5DB7"/>
</g>
<path d="M16.3069 14.1515C16.1675 14.1312 16.0254 14.1593 15.9041 14.231H15.8936C15.6124 14.396 15.3589 14.6037 15.1429 14.8483C14.9629 15.056 14.8654 15.266 14.8399 15.4685C14.8249 15.5885 14.8354 15.71 14.8706 15.8247L14.8841 15.8322C15.0866 16.427 15.3506 16.9992 15.6731 17.5378C16.089 18.2941 16.6007 18.9936 17.1956 19.619L17.2136 19.6445L17.2421 19.6655L17.2594 19.6858L17.2804 19.7037C17.9079 20.3005 18.6091 20.8146 19.3669 21.2338C20.2331 21.7055 20.7589 21.9282 21.0746 22.0212V22.0258C21.1669 22.0542 21.2509 22.067 21.3356 22.067C21.6045 22.0471 21.8591 21.9378 22.0586 21.7565C22.3024 21.5405 22.5086 21.2863 22.6691 21.0035V20.9983C22.8199 20.7133 22.7689 20.4448 22.5514 20.2625C22.1145 19.8808 21.6421 19.5417 21.1406 19.25C20.8046 19.0677 20.4634 19.178 20.3254 19.3625L20.0306 19.7345C19.8791 19.919 19.6046 19.8935 19.6046 19.8935L19.5971 19.898C17.5489 19.3753 17.0021 17.3015 17.0021 17.3015C17.0021 17.3015 16.9766 17.0195 17.1664 16.8755L17.5354 16.5785C17.7124 16.4345 17.8354 16.094 17.6456 15.758C17.3558 15.2561 17.0175 14.7838 16.6354 14.348C16.5521 14.2454 16.4352 14.1756 16.3054 14.1508L16.3069 14.1515ZM19.7681 13.25C19.6687 13.25 19.5733 13.2895 19.503 13.3598C19.4326 13.4302 19.3931 13.5255 19.3931 13.625C19.3931 13.7245 19.4326 13.8198 19.503 13.8902C19.5733 13.9605 19.6687 14 19.7681 14C20.7161 14 21.5036 14.3097 22.1269 14.9037C22.4471 15.2285 22.6969 15.6133 22.8604 16.0348C23.0246 16.457 23.0996 16.9078 23.0801 17.3593C23.076 17.4587 23.1115 17.5557 23.1788 17.629C23.2462 17.7023 23.3399 17.7458 23.4394 17.75C23.5388 17.7542 23.6359 17.7187 23.7092 17.6513C23.7824 17.5839 23.826 17.4902 23.8301 17.3907C23.8534 16.8354 23.7612 16.2812 23.5594 15.7632C23.3567 15.2429 23.0494 14.7696 22.6564 14.3728L22.6489 14.3652C21.8756 13.6265 20.8976 13.25 19.7681 13.25Z" fill="white"/>
<path d="M19.7419 14.483C19.6425 14.483 19.5471 14.5226 19.4768 14.5929C19.4065 14.6632 19.3669 14.7586 19.3669 14.858C19.3669 14.9575 19.4065 15.0529 19.4768 15.1232C19.5471 15.1935 19.6425 15.233 19.7419 15.233H19.7547C20.4387 15.2818 20.9367 15.5098 21.2854 15.884C21.6432 16.2695 21.8284 16.7488 21.8142 17.3413C21.8119 17.4408 21.8492 17.537 21.9179 17.609C21.9866 17.6809 22.0811 17.7226 22.1806 17.7249C22.28 17.7272 22.3763 17.6899 22.4483 17.6212C22.5202 17.5525 22.5619 17.458 22.5642 17.3585C22.5822 16.5808 22.3317 15.9095 21.8352 15.374V15.3725C21.3274 14.828 20.6307 14.54 19.7922 14.4838L19.7794 14.4823L19.7419 14.483Z" fill="white"/>
<path d="M19.7278 15.7392C19.6776 15.7348 19.627 15.7405 19.5791 15.7561C19.5312 15.7716 19.4869 15.7967 19.4489 15.8297C19.4108 15.8628 19.3799 15.9031 19.3578 15.9484C19.3357 15.9937 19.323 16.043 19.3203 16.0933C19.3177 16.1436 19.3253 16.1939 19.3425 16.2412C19.3598 16.2886 19.3864 16.332 19.4208 16.3688C19.4552 16.4056 19.4966 16.4351 19.5427 16.4555C19.5887 16.476 19.6384 16.4869 19.6888 16.4877C20.0023 16.5042 20.2025 16.5987 20.3285 16.7255C20.4553 16.853 20.5498 17.0577 20.567 17.378C20.568 17.4283 20.579 17.4779 20.5995 17.5239C20.6201 17.5699 20.6496 17.6112 20.6865 17.6455C20.7233 17.6798 20.7667 17.7063 20.814 17.7235C20.8613 17.7407 20.9116 17.7482 20.9619 17.7455C21.0121 17.7428 21.0613 17.7301 21.1066 17.708C21.1518 17.6859 21.1921 17.6549 21.2251 17.6169C21.2581 17.5789 21.2831 17.5346 21.2987 17.4868C21.3142 17.4389 21.3199 17.3884 21.3155 17.3382C21.2915 16.8882 21.1505 16.4907 20.8618 16.1982C20.5715 15.9057 20.1763 15.7632 19.7278 15.7392Z" fill="white"/>
<path fill-rule="evenodd" clip-rule="evenodd" d="M15.6336 11.288C18.0202 10.7546 20.4951 10.7546 22.8816 11.288L23.1359 11.3443C23.8335 11.5003 24.4742 11.8466 24.9869 12.3448C25.4996 12.843 25.864 13.4736 26.0399 14.1665C26.6456 16.5537 26.6456 19.0544 26.0399 21.4415C25.864 22.1345 25.4996 22.7651 24.9869 23.2633C24.4742 23.7615 23.8335 24.1078 23.1359 24.2638L22.8809 24.32C21.3861 24.6543 19.8523 24.7802 18.3231 24.6943L16.3334 26.4748C16.2583 26.542 16.1667 26.5878 16.0679 26.6074C15.9692 26.6271 15.867 26.6198 15.7719 26.5865C15.6769 26.5532 15.5926 26.495 15.5278 26.4179C15.4629 26.3409 15.42 26.2479 15.4034 26.1485L15.0741 24.182C14.4427 23.9856 13.8723 23.6305 13.4173 23.1507C12.9624 22.6709 12.638 22.0824 12.4754 21.4415C11.8695 19.0544 11.8695 16.5537 12.4754 14.1665C12.6512 13.4736 13.0157 12.843 13.5283 12.3448C14.041 11.8466 14.6817 11.5003 15.3794 11.3443L15.6336 11.288ZM22.6364 12.3853C20.4113 11.8879 18.1039 11.8879 15.8789 12.3853L15.6239 12.4423C15.1294 12.553 14.6753 12.7987 14.312 13.1519C13.9487 13.5051 13.6904 13.9521 13.5659 14.4433C13.0061 16.6488 13.0061 18.9593 13.5659 21.1648C13.6905 21.656 13.9489 22.1031 14.3123 22.4564C14.6758 22.8096 15.13 23.0552 15.6246 23.1658L15.6921 23.1808C15.8013 23.2052 15.9007 23.2616 15.9777 23.3429C16.0546 23.4241 16.1056 23.5264 16.1241 23.6368L16.3446 24.9553L17.7486 23.699C17.8047 23.6487 17.8703 23.6102 17.9415 23.5857C18.0128 23.5612 18.0882 23.5513 18.1634 23.5565C19.6626 23.6629 21.1694 23.5505 22.6364 23.2228L22.8906 23.1658C23.3852 23.0552 23.8394 22.8096 24.2029 22.4564C24.5663 22.1031 24.8247 21.656 24.9494 21.1648C25.5089 18.9598 25.5089 16.649 24.9494 14.4433C24.8247 13.952 24.5663 13.505 24.2029 13.1517C23.8394 12.7985 23.3852 12.5529 22.8906 12.4423L22.6364 12.3853Z" fill="white"/>
<defs>
<filter id="filter0_b_9005_4917" x="-3.16675" y="-4" width="44" height="44" filterUnits="userSpaceOnUse" color-interpolation-filters="sRGB">
<feFlood flood-opacity="0" result="BackgroundImageFix"/>
<feGaussianBlur in="BackgroundImageFix" stdDeviation="2"/>
<feComposite in2="SourceAlpha" operator="in" result="effect1_backgroundBlur_9005_4917"/>
<feBlend mode="normal" in="SourceGraphic" in2="effect1_backgroundBlur_9005_4917" result="shape"/>
</filter>
</defs>
</svg>
