<svg width="37" height="36" viewBox="0 0 37 36" fill="none" xmlns="http://www.w3.org/2000/svg">
<g filter="url(#filter0_b_9005_4924)">
<rect x="0.833252" width="36" height="36" rx="4" fill="#25D366"/>
</g>
<path d="M15.7737 22.3705L16.3167 22.6877C17.2324 23.2218 18.2739 23.5022 19.334 23.5C20.5207 23.5 21.6807 23.1481 22.6674 22.4888C23.6541 21.8295 24.4231 20.8925 24.8773 19.7961C25.3314 18.6997 25.4502 17.4933 25.2187 16.3295C24.9872 15.1656 24.4158 14.0965 23.5766 13.2574C22.7375 12.4182 21.6684 11.8468 20.5045 11.6153C19.3407 11.3838 18.1343 11.5026 17.0379 11.9567C15.9415 12.4108 15.0045 13.1799 14.3452 14.1666C13.6859 15.1533 13.334 16.3133 13.334 17.5C13.3318 18.5604 13.6124 19.6022 14.147 20.518L14.4635 21.061L13.9737 22.8617L15.7737 22.3705ZM11.837 25L12.851 21.274C12.1828 20.1287 11.8318 18.826 11.834 17.5C11.834 13.3578 15.1917 10 19.334 10C23.4762 10 26.834 13.3578 26.834 17.5C26.834 21.6423 23.4762 25 19.334 25C18.0086 25.0021 16.7065 24.6514 15.5615 23.9838L11.837 25ZM16.6272 13.981C16.7277 13.9735 16.829 13.9735 16.9295 13.978C16.97 13.981 17.0105 13.9855 17.051 13.99C17.1702 14.0035 17.3015 14.0762 17.3457 14.1767C17.5692 14.6837 17.7867 15.1945 17.9967 15.7067C18.0432 15.8208 18.0155 15.967 17.927 16.1095C17.882 16.1823 17.8115 16.2842 17.7297 16.3885C17.645 16.4972 17.4627 16.6967 17.4627 16.6967C17.4627 16.6967 17.3885 16.7853 17.417 16.8955C17.4275 16.9375 17.462 16.9983 17.4935 17.0493L17.5377 17.1205C17.7297 17.4408 17.9877 17.7655 18.3027 18.0715C18.3927 18.1585 18.4805 18.2478 18.575 18.331C18.926 18.6407 19.3235 18.8935 19.7525 19.081L19.7562 19.0825C19.82 19.1102 19.8522 19.1252 19.9452 19.165C19.9917 19.1845 20.0397 19.201 20.0885 19.2145C20.1389 19.2273 20.1919 19.2249 20.2409 19.2076C20.2899 19.1902 20.3327 19.1587 20.3637 19.117C20.9067 18.4593 20.9562 18.4165 20.9607 18.4165V18.418C20.9985 18.3828 21.0433 18.3561 21.0922 18.3397C21.1411 18.3233 21.1929 18.3175 21.2442 18.3228C21.2892 18.3258 21.335 18.334 21.377 18.3527C21.7752 18.535 22.427 18.8193 22.427 18.8193L22.8635 19.015C22.937 19.0503 23.0037 19.1335 23.006 19.2137C23.009 19.264 23.0135 19.345 22.9962 19.4935C22.9722 19.6877 22.9137 19.921 22.8552 20.0433C22.8151 20.1267 22.762 20.2031 22.6977 20.2697C22.6221 20.3492 22.5392 20.4215 22.4502 20.4858C22.3887 20.5323 22.3565 20.5532 22.3565 20.5532C22.2632 20.6124 22.1673 20.6675 22.0692 20.7183C21.8761 20.8208 21.6629 20.8797 21.4445 20.8907C21.3057 20.8982 21.167 20.9087 21.0275 20.9012C21.0215 20.9012 20.6015 20.836 20.6015 20.836C19.5352 20.5555 18.549 20.0301 17.7215 19.3015C17.552 19.1523 17.3945 18.9917 17.234 18.832C16.568 18.1683 16.0632 17.452 15.7565 16.7755C15.6003 16.4436 15.5159 16.0825 15.509 15.7158C15.5062 15.2603 15.6553 14.8169 15.9327 14.4557C15.9875 14.3853 16.0392 14.3117 16.1285 14.227C16.223 14.137 16.2837 14.089 16.349 14.056C16.4358 14.0125 16.5304 13.987 16.6272 13.981Z" fill="white"/>
<defs>
<filter id="filter0_b_9005_4924" x="-3.16675" y="-4" width="44" height="44" filterUnits="userSpaceOnUse" color-interpolation-filters="sRGB">
<feFlood flood-opacity="0" result="BackgroundImageFix"/>
<feGaussianBlur in="BackgroundImageFix" stdDeviation="2"/>
<feComposite in2="SourceAlpha" operator="in" result="effect1_backgroundBlur_9005_4924"/>
<feBlend mode="normal" in="SourceGraphic" in2="effect1_backgroundBlur_9005_4924" result="shape"/>
</filter>
</defs>
</svg>
